<svg width="700" height="197" viewBox="0 0 700 197" fill="none" xmlns="http://www.w3.org/2000/svg">
<path d="M516.993 50.4768C526.717 47.2902 536.734 39.0265 540.943 35.1057C536.793 48.2234 534.984 60.2869 523.299 70.2636C510.948 80.8213 497.639 83.3222 482.188 84.1074C486.235 77.3819 498.166 72.9286 502.146 71.1726C512.069 66.7812 518.523 61.3303 525.849 53.4215C519.169 58.7325 514.156 61.6799 506.229 65.122C497.158 69.0536 487.472 70.7047 480.168 78.0407C483.693 67.9752 488.276 63.6457 491.403 61.4379C496.771 57.6462 504.295 54.6477 516.993 50.4768Z" fill="url(#paint0_radial_1985_14898)"/>
<path d="M464.427 83.9531C480.79 97.1596 502.822 91.784 520.095 82.6409C536.203 74.1109 553.685 61.3589 572.388 70.7414C587.428 78.3113 589.55 103.931 574.741 113.061C569.957 116.011 563.433 114.843 560.653 109.226C558.356 104.579 558.391 99.916 561.93 96.0275C566.762 90.7218 574.031 92.588 578.256 98.2083C583.107 81.0623 567.327 70.3165 551.345 74.0786C536.049 77.6148 525.21 89.7214 509.935 94.4624C498.079 98.1412 479.835 100.916 462.816 86.7661C456.486 81.5007 452.487 77.9591 446.511 74.1082C440.302 70.1041 436.016 68.0172 426.867 66.1832C431.643 63.4726 439.945 66.6592 444.255 68.8885C450.984 72.3629 456.604 77.5691 462.453 82.2886C467.315 86.2201 459.207 79.7419 464.427 83.9531Z" fill="url(#paint1_radial_1985_14898)"/>
<path d="M364.429 112.882C386.937 113.476 396.419 103.773 408.571 87.3239C406.073 94.8427 404.081 101.794 401.789 109.474C398.103 121.826 389.578 132.569 385.708 144.56C382.64 154.05 384.159 164.129 387.107 173.344C388.532 177.825 391.065 186.01 399.159 192.187C383.85 192.247 361.444 175.122 365.182 157.169C362.732 158.366 361.033 161.69 361.345 164.094C357.096 161.012 354.858 147.332 357.211 140.612C360.597 130.928 364.472 126.456 370.886 119.067C365.706 118.698 363.267 116.203 360.643 112.497C361.901 112.618 363.165 112.747 364.429 112.882C366.825 112.943 363.157 112.844 364.429 112.882Z" fill="url(#paint2_radial_1985_14898)"/>
<path d="M418.918 105.354C427.139 112.918 437.901 114.742 444.887 105.846C447.334 102.729 448.52 97.1679 447.073 92.8572C445.282 87.5085 439.977 83.7276 434.397 84.8436C426.068 86.5055 424.342 100.139 433.939 100.629C431.444 104.499 424.315 101.304 420.771 97.7757C415.726 92.7604 411.601 84.4106 409.156 74.5898C409.137 75.1223 408.6 81.8021 410.202 88.162C411.948 95.0838 414.97 101.723 418.918 105.354Z" fill="url(#paint3_radial_1985_14898)"/>
<path d="M457.039 116.488C450.714 104.693 454.613 97.0078 452.48 86.3776C452.924 86.7433 455.237 88.6688 459.064 103.33C461.938 114.348 470.396 117.798 470.396 117.798C466.905 114.339 465.179 110.892 463.237 106.014C461.212 100.942 459.999 94.3187 456.899 88.061C461.712 95.3325 469.099 98.4976 472.684 107.216C476.505 116.523 477.796 126.355 488.733 129.902C472.146 132.233 460.967 123.827 457.039 116.488Z" fill="url(#paint4_radial_1985_14898)"/>
<path d="M606.653 107.789C597.098 103.142 596.033 96.376 589.711 90.5244C590.168 90.5486 592.553 90.7152 601.836 98.3739C608.815 104.131 615.866 102.421 615.866 102.421C612.012 101.813 609.288 100.399 605.773 98.1615C602.113 95.8381 598.249 92.1378 593.341 89.5482C599.825 91.9926 606.053 90.5942 612.421 94.5419C619.208 98.7531 624.613 104.486 633.31 101.684C623.713 110.905 612.601 110.693 606.653 107.789Z" fill="url(#paint5_radial_1985_14898)"/>
<path d="M400.142 100.684C389.313 111.024 364.237 106.361 367.031 88.4078C370.002 69.2153 402.654 80.7572 389.189 95.2033C392.379 94.8618 394.786 92.947 396.391 91.7315C401.032 88.2061 402.74 82.3384 402.939 76.6454C403.332 65.5043 395.633 56.6946 385.339 53.352C388.869 57.1948 391.015 67.5884 382.303 72.2406C383.488 60.9865 380.646 53.7231 371.804 46.5861C363.79 40.1106 357.643 37.1283 357.708 36.5017C369.08 34.7914 385.25 39.4464 393.046 45.1286C410.523 57.894 417.245 84.3767 400.142 100.684C401.573 99.3231 398.575 102.182 400.142 100.684Z" fill="url(#paint6_radial_1985_14898)"/>
<path d="M451.98 61.8945C464.203 59.6786 477.549 53.0741 485.288 42.9494C492.32 33.7472 495.367 25.5963 493.442 18.349C492.269 13.9469 489.22 13.4844 489.22 13.4844C489.22 13.4844 489.072 18.6234 485.299 21.0893C481.913 23.2971 477.076 21.4792 474.677 19.067C468.113 12.4921 474.389 -1.83037 485.433 0.194565C491.619 1.32938 497.9 4.92749 500.608 10.7226C502.378 14.5063 503.187 17.7682 502.84 21.9606C502.483 26.3439 500.748 30.375 498.21 36.0303C503.443 35.3795 501.724 41.9168 499.971 44.2618C496.709 48.637 492.654 52.8455 488.271 56.1048C477.998 63.7285 467.349 68.1145 454.554 69.0154C442.961 69.8275 430.806 69.5801 415.432 63.7715C404.097 59.4877 396.07 52.063 389.398 43.0866C393.446 45.0954 395.016 46.1092 397.197 47.7791C403.745 52.781 409.078 57.4332 417.492 60.6279C428.477 64.8123 440.707 63.9409 451.98 61.8945C453.282 61.6578 450.711 62.1284 451.98 61.8945Z" fill="url(#paint7_radial_1985_14898)"/>
<path d="M598.633 74.5093C612.501 74.7352 617.815 70.2685 626.893 52.6008C645.271 16.8055 686.587 16.8646 696.564 41.7877C704.817 62.4108 693.415 75.0363 690.688 77.669C689.099 79.3793 686.821 80.4362 684.301 80.3421C679.711 80.1646 676.134 76.2976 676.312 71.7045C676.489 67.1141 680.354 63.5376 684.947 63.7124C688.346 63.8442 691.175 66.0035 692.353 68.9724C695.174 63.6048 696.634 55.9434 692.345 46.0124C687.257 34.25 676.382 31.179 668.427 31.8862C660.736 32.5693 655.874 36.8342 655.874 36.8342C665.348 36.5223 669.468 43.4389 669.468 43.4389C643.862 41.7689 647.662 48.3358 631.97 69.6877C616.279 91.0368 595.653 87.6485 576.041 76.7117C556.992 66.0976 539.297 72.5139 539.297 72.5139C570.655 56.4624 581.756 74.2269 598.633 74.5093Z" fill="url(#paint8_radial_1985_14898)"/>
<path d="M182.519 50.4768C172.789 47.2902 162.775 39.0265 158.566 35.1057C162.713 48.2234 164.526 60.2869 176.21 70.2636C188.558 80.8213 201.87 83.3222 217.324 84.1074C213.272 77.3819 201.343 72.9286 197.365 71.1726C187.443 66.7812 180.991 61.3303 173.663 53.4215C180.349 58.7325 185.358 61.6799 193.283 65.122C202.357 69.0536 212.037 70.7047 219.341 78.0407C215.818 67.9752 211.236 63.6457 208.114 61.4379C202.738 57.6462 195.214 54.6477 182.519 50.4768Z" fill="url(#paint9_radial_1985_14898)"/>
<path d="M235.082 83.9531C218.723 97.1596 196.686 91.784 179.416 82.6409C163.308 74.1109 145.823 61.3589 127.123 70.7414C112.082 78.3113 109.955 103.931 124.767 113.061C129.557 116.011 136.075 114.843 138.856 109.226C141.155 104.579 141.117 99.916 137.576 96.0275C132.746 90.7218 125.48 92.588 121.25 98.2083C116.404 81.0623 132.181 70.3165 148.163 74.0786C163.456 77.6148 174.299 89.7214 189.573 94.4624C201.43 98.1412 219.673 100.916 236.695 86.7661C243.025 81.5007 247.019 77.9591 252.994 74.1082C259.209 70.1041 263.492 68.0172 272.638 66.1832C267.865 63.4726 259.561 66.6592 255.253 68.8885C248.525 72.3629 242.904 77.5691 237.055 82.2886C232.193 86.2201 240.301 79.7419 235.082 83.9531Z" fill="url(#paint10_radial_1985_14898)"/>
<path d="M335.084 112.882C312.578 113.476 303.094 103.773 290.941 87.3239C293.442 94.8427 295.432 101.794 297.726 109.474C301.413 121.826 309.93 132.569 313.805 144.56C316.87 154.05 315.351 164.129 312.406 173.344C310.984 177.825 308.448 186.01 300.356 192.187C315.663 192.247 338.069 175.122 334.334 157.169C336.778 158.366 338.48 161.69 338.166 164.094C342.417 161.012 344.655 147.332 342.302 140.612C338.916 130.928 335.041 126.456 328.627 119.067C333.809 118.698 336.248 116.203 338.87 112.497C337.612 112.618 336.345 112.747 335.084 112.882C336.356 112.844 332.693 112.943 335.084 112.882Z" fill="url(#paint11_radial_1985_14898)"/>
<path d="M280.597 105.354C272.373 112.918 261.617 114.742 254.625 105.846C252.178 102.729 250.997 97.1679 252.438 92.8572C254.229 87.5085 259.532 83.7276 265.112 84.8436C273.443 86.5055 275.17 100.139 265.57 100.629C268.065 104.499 275.197 101.304 278.741 97.7757C283.783 92.7604 287.914 84.4106 290.355 74.5898C290.377 75.1223 290.912 81.8021 289.307 88.162C287.567 95.0838 284.544 101.723 280.597 105.354Z" fill="url(#paint12_radial_1985_14898)"/>
<path d="M242.485 116.488C248.804 104.693 244.908 97.0078 247.04 86.3776C246.597 86.7433 244.287 88.6688 240.46 103.33C237.583 114.348 229.125 117.798 229.125 117.798C232.61 114.339 234.345 110.892 236.284 106.014C238.309 100.942 239.521 94.3187 242.622 88.061C237.811 95.3325 230.419 98.4976 226.834 107.216C223.015 116.523 221.725 126.355 210.785 129.902C227.372 132.233 238.553 123.827 242.485 116.488Z" fill="url(#paint13_radial_1985_14898)"/>
<path d="M92.8682 107.789C102.423 103.142 103.49 96.376 109.81 90.5244C109.353 90.5486 106.97 90.7152 97.6845 98.3739C90.7061 104.131 83.6579 102.421 83.6579 102.421C87.5115 101.813 90.2355 100.399 93.7503 98.1615C97.4075 95.8381 101.272 92.1378 106.177 89.5482C99.6987 91.9926 93.4652 90.5942 87.1054 94.5419C80.3153 98.7531 74.9101 104.486 66.2188 101.684C75.8083 110.905 86.9198 110.693 92.8682 107.789Z" fill="url(#paint14_radial_1985_14898)"/>
<path d="M299.376 100.684C310.211 111.024 335.287 106.361 332.491 88.4078C329.516 69.2153 296.867 80.7572 310.329 95.2033C307.145 94.8618 304.733 92.947 303.128 91.7315C298.486 88.2061 296.779 82.3384 296.585 76.6454C296.192 65.5043 303.886 56.6946 314.183 53.352C310.652 57.1948 308.503 67.5884 317.216 72.2406C316.03 60.9865 318.878 53.7231 327.72 46.5861C335.734 40.1106 341.878 37.1283 341.819 36.5017C330.447 34.7914 314.272 39.4464 306.481 45.1286C288.999 57.894 282.273 84.3767 299.376 100.684C300.947 102.182 297.948 99.3231 299.376 100.684Z" fill="url(#paint15_radial_1985_14898)"/>
<path d="M247.542 61.8945C235.32 59.6786 221.976 53.0741 214.234 42.9494C207.199 33.7472 204.152 25.5963 206.078 18.349C207.248 13.9469 210.3 13.4844 210.3 13.4844C210.3 13.4844 210.448 18.6234 214.223 21.0893C217.609 23.2971 222.447 21.4792 224.845 19.067C231.412 12.4921 225.136 -1.83037 214.092 0.194565C207.904 1.32938 201.625 4.92749 198.917 10.7226C197.144 14.5063 196.335 17.7682 196.679 21.9606C197.04 26.3439 198.771 30.375 201.315 36.0303C196.08 35.3795 197.801 41.9168 199.549 44.2618C202.813 48.637 206.863 52.8455 211.249 56.1048C221.522 63.7285 232.173 68.1145 244.971 69.0154C256.559 69.8275 268.719 69.5801 284.09 63.7715C295.422 59.4877 303.452 52.063 310.121 43.0866C306.071 45.0954 304.501 46.1092 302.317 47.7791C295.772 52.781 290.437 57.4332 282.025 60.6279C271.04 64.8123 258.812 63.9409 247.542 61.8945C248.808 62.1284 246.238 61.6578 247.542 61.8945Z" fill="url(#paint16_radial_1985_14898)"/>
<path d="M100.882 74.5103C87.0139 74.7362 81.7002 70.2695 72.6243 52.6017C54.2439 16.8064 12.9251 16.8656 2.95105 41.7887C-5.30465 62.4118 6.09735 75.0373 8.82146 77.67C10.4134 79.3803 12.6912 80.4372 15.2109 80.3431C19.7986 80.1656 23.3778 76.2986 23.203 71.7055C23.0229 67.1151 19.1586 63.5386 14.5682 63.7134C11.1691 63.8451 8.3374 66.0045 7.16224 68.9733C4.34132 63.6058 2.88382 55.9444 7.17302 46.0134C12.2582 34.251 23.1331 31.1799 31.0876 31.8872C38.7786 32.5702 43.6379 36.8352 43.6379 36.8352C34.1694 36.5233 30.0469 43.4398 30.0469 43.4398C55.6557 41.7699 51.8559 48.3368 67.5445 69.6886C83.2357 91.0378 103.859 87.6495 123.476 76.7127C142.523 66.0986 160.215 72.5149 160.215 72.5149C128.854 56.4634 117.756 74.2279 100.882 74.5103Z" fill="url(#paint17_radial_1985_14898)"/>
<path d="M369.267 37.6708C369.267 48.449 360.533 57.1807 349.757 57.1807C338.982 57.1807 330.25 48.449 330.25 37.6708C330.25 26.8954 338.984 18.161 349.757 18.161C360.533 18.161 369.267 26.8954 369.267 37.6708Z" fill="url(#paint18_radial_1985_14898)"/>
<path d="M361.95 184.808C361.95 191.542 356.491 197.001 349.758 197.001C343.024 197.001 337.562 191.542 337.562 184.808C337.562 178.075 343.024 172.616 349.758 172.616C356.491 172.616 361.95 178.075 361.95 184.808Z" fill="url(#paint19_radial_1985_14898)"/>
<path d="M358.7 74.9299C358.7 79.8672 354.699 83.874 349.762 83.874C344.824 83.874 340.82 79.8672 340.82 74.9299C340.82 69.9926 344.824 65.9885 349.762 65.9885C354.699 65.9885 358.7 69.9926 358.7 74.9299Z" fill="url(#paint20_radial_1985_14898)"/>
<defs>
<radialGradient id="paint0_radial_1985_14898" cx="0" cy="0" r="1" gradientUnits="userSpaceOnUse" gradientTransform="translate(510.555 59.6066) rotate(180) scale(30.3874 24.5008)">
<stop stop-color="#FFE7B0"/>
<stop offset="1" stop-color="#FFB000"/>
</radialGradient>
<radialGradient id="paint1_radial_1985_14898" cx="0" cy="0" r="1" gradientUnits="userSpaceOnUse" gradientTransform="translate(505.844 89.8866) rotate(180) scale(78.9768 24.7443)">
<stop stop-color="#FFE7B0"/>
<stop offset="1" stop-color="#FFB000"/>
</radialGradient>
<radialGradient id="paint2_radial_1985_14898" cx="0" cy="0" r="1" gradientUnits="userSpaceOnUse" gradientTransform="translate(382.415 139.756) rotate(180) scale(26.1568 52.4318)">
<stop stop-color="#FFE7B0"/>
<stop offset="1" stop-color="#FFB000"/>
</radialGradient>
<radialGradient id="paint3_radial_1985_14898" cx="0" cy="0" r="1" gradientUnits="userSpaceOnUse" gradientTransform="translate(428.378 93.1963) rotate(180) scale(19.3235 18.6065)">
<stop stop-color="#FFE7B0"/>
<stop offset="1" stop-color="#FFB000"/>
</radialGradient>
<radialGradient id="paint4_radial_1985_14898" cx="0" cy="0" r="1" gradientUnits="userSpaceOnUse" gradientTransform="translate(470.607 108.338) rotate(180) scale(18.1263 21.9601)">
<stop stop-color="#FFE7B0"/>
<stop offset="1" stop-color="#FFB000"/>
</radialGradient>
<radialGradient id="paint5_radial_1985_14898" cx="0" cy="0" r="1" gradientUnits="userSpaceOnUse" gradientTransform="translate(611.511 99.5568) rotate(180) scale(21.7996 10.0086)">
<stop stop-color="#FFE7B0"/>
<stop offset="1" stop-color="#FFB000"/>
</radialGradient>
<radialGradient id="paint6_radial_1985_14898" cx="0" cy="0" r="1" gradientUnits="userSpaceOnUse" gradientTransform="translate(383.887 71.1217) rotate(180) scale(26.1799 34.9788)">
<stop stop-color="#FFE7B0"/>
<stop offset="1" stop-color="#FFB000"/>
</radialGradient>
<radialGradient id="paint7_radial_1985_14898" cx="0" cy="0" r="1" gradientUnits="userSpaceOnUse" gradientTransform="translate(446.159 34.6779) rotate(180) scale(56.7603 34.6776)">
<stop stop-color="#FFE7B0"/>
<stop offset="1" stop-color="#FFB000"/>
</radialGradient>
<radialGradient id="paint8_radial_1985_14898" cx="0" cy="0" r="1" gradientUnits="userSpaceOnUse" gradientTransform="translate(619.405 54.7955) rotate(180) scale(80.1082 30.5502)">
<stop stop-color="#FFE7B0"/>
<stop offset="1" stop-color="#FFB000"/>
</radialGradient>
<radialGradient id="paint9_radial_1985_14898" cx="0" cy="0" r="1" gradientUnits="userSpaceOnUse" gradientTransform="translate(188.954 59.6066) rotate(180) scale(30.3874 24.5008)">
<stop stop-color="#FFE7B0"/>
<stop offset="1" stop-color="#FFB000"/>
</radialGradient>
<radialGradient id="paint10_radial_1985_14898" cx="0" cy="0" r="1" gradientUnits="userSpaceOnUse" gradientTransform="translate(193.663 89.8866) rotate(180) scale(78.9754 24.7443)">
<stop stop-color="#FFE7B0"/>
<stop offset="1" stop-color="#FFB000"/>
</radialGradient>
<radialGradient id="paint11_radial_1985_14898" cx="0" cy="0" r="1" gradientUnits="userSpaceOnUse" gradientTransform="translate(317.098 139.756) rotate(180) scale(26.1568 52.4318)">
<stop stop-color="#FFE7B0"/>
<stop offset="1" stop-color="#FFB000"/>
</radialGradient>
<radialGradient id="paint12_radial_1985_14898" cx="0" cy="0" r="1" gradientUnits="userSpaceOnUse" gradientTransform="translate(271.135 93.1963) rotate(180) scale(19.3228 18.6065)">
<stop stop-color="#FFE7B0"/>
<stop offset="1" stop-color="#FFB000"/>
</radialGradient>
<radialGradient id="paint13_radial_1985_14898" cx="0" cy="0" r="1" gradientUnits="userSpaceOnUse" gradientTransform="translate(228.913 108.338) rotate(180) scale(18.1276 21.9601)">
<stop stop-color="#FFE7B0"/>
<stop offset="1" stop-color="#FFB000"/>
</radialGradient>
<radialGradient id="paint14_radial_1985_14898" cx="0" cy="0" r="1" gradientUnits="userSpaceOnUse" gradientTransform="translate(88.0143 99.5568) rotate(180) scale(21.7956 10.0086)">
<stop stop-color="#FFE7B0"/>
<stop offset="1" stop-color="#FFB000"/>
</radialGradient>
<radialGradient id="paint15_radial_1985_14898" cx="0" cy="0" r="1" gradientUnits="userSpaceOnUse" gradientTransform="translate(315.636 71.1217) rotate(180) scale(26.1832 34.9788)">
<stop stop-color="#FFE7B0"/>
<stop offset="1" stop-color="#FFB000"/>
</radialGradient>
<radialGradient id="paint16_radial_1985_14898" cx="0" cy="0" r="1" gradientUnits="userSpaceOnUse" gradientTransform="translate(253.361 34.6779) rotate(180) scale(56.7598 34.6776)">
<stop stop-color="#FFE7B0"/>
<stop offset="1" stop-color="#FFB000"/>
</radialGradient>
<radialGradient id="paint17_radial_1985_14898" cx="0" cy="0" r="1" gradientUnits="userSpaceOnUse" gradientTransform="translate(80.1077 54.7965) rotate(180) scale(80.1077 30.5502)">
<stop stop-color="#FFE7B0"/>
<stop offset="1" stop-color="#FFB000"/>
</radialGradient>
<radialGradient id="paint18_radial_1985_14898" cx="0" cy="0" r="1" gradientUnits="userSpaceOnUse" gradientTransform="translate(349.758 37.6708) rotate(180) scale(19.5085 19.5098)">
<stop stop-color="#FFE7B0"/>
<stop offset="1" stop-color="#FFB000"/>
</radialGradient>
<radialGradient id="paint19_radial_1985_14898" cx="0" cy="0" r="1" gradientUnits="userSpaceOnUse" gradientTransform="translate(349.756 184.808) rotate(180) scale(12.194 12.1926)">
<stop stop-color="#FFE7B0"/>
<stop offset="1" stop-color="#FFB000"/>
</radialGradient>
<radialGradient id="paint20_radial_1985_14898" cx="0" cy="0" r="1" gradientUnits="userSpaceOnUse" gradientTransform="translate(349.76 74.9312) rotate(180) scale(8.94009 8.94278)">
<stop stop-color="#FFE7B0"/>
<stop offset="1" stop-color="#FFB000"/>
</radialGradient>
</defs>
</svg>
